<svg xmlns="http://www.w3.org/2000/svg" width="20" height="20" viewBox="0 0 20 20">
  <g fill="none" fillRule="evenodd" transform="translate(2 2)">
    <path d="M9 14c3.866 0 7-3.134 7-7s-3.134-7-7-7-7 3.134-7 7c0 .552.448 1 1 1s1-.448 1-1c0-2.76 2.24-5 5-5s5 2.24 5 5-2.24 5-5 5c-.552 0-1 .448-1 1s.448 1 1 1z"  fill="#fff" />
    <path d="M.293 6.707l2 2c.39.39 1.024.39 1.414 0l2-2C6.337 6.077 5.89 5 5 5H1C.11 5-.337 6.077.293 6.707zM10 5c0-.552-.448-1-1-1s-1 .448-1 1v2c0 .265.105.52.293.707l2 2c.39.39 1.024.39 1.414 0 .39-.39.39-1.024 0-1.415L10 6.586V5z" fill="#fff" />
    <path d="M-2-3h20v20H-2z"/>
  </g>
</svg>
