<svg xmlns="http://www.w3.org/2000/svg" width="20" height="20" viewBox="0 0 20 20">
  <g fill="none" fillRule="evenodd">
    <path d="M0 0h20v20H0z" />
    <path d="M3 10c0-3.866 3.134-7 7-7s7 3.134 7 7-3.134 7-7 7-7-3.134-7-7z" fill="#97999A" />
    <path d="M11.414 10l1.293 1.293c.39.39.39 1.024 0 1.414-.39.39-1.024.39-1.414 0L10 11.414l-1.293 1.293c-.39.39-1.024.39-1.414 0-.39-.39-.39-1.024 0-1.414L8.586 10 7.293 8.707c-.39-.39-.39-1.024 0-1.414.39-.39 1.024-.39 1.414 0L10 8.586l1.293-1.293c.39-.39 1.024-.39 1.414 0 .39.39.39 1.024 0 1.414L11.414 10z" fill="#FFF" fill-opacity="0.3" />
  </g>
</svg>
